<svg style="position: absolute; width: 0; height: 0; overflow: hidden;" version="1.1" xmlns="http://www.w3.org/2000/svg" xmlns:xlink="http://www.w3.org/1999/xlink">
<defs>
<symbol id="twitter" viewBox="0 0 30 32">
<title>twitter</title>
<path class="path1" d="M28.929 7.286q-1.196 1.75-2.893 2.982 0.018 0.25 0.018 0.75 0 2.321-0.679 4.634t-2.063 4.437-3.295 3.759-4.607 2.607-5.768 0.973q-4.839 0-8.857-2.589 0.625 0.071 1.393 0.071 4.018 0 7.161-2.464-1.875-0.036-3.357-1.152t-2.036-2.848q0.589 0.089 1.089 0.089 0.768 0 1.518-0.196-2-0.411-3.313-1.991t-1.313-3.67v-0.071q1.214 0.679 2.607 0.732-1.179-0.786-1.875-2.054t-0.696-2.75q0-1.571 0.786-2.911 2.161 2.661 5.259 4.259t6.634 1.777q-0.143-0.679-0.143-1.321 0-2.393 1.688-4.080t4.080-1.688q2.5 0 4.214 1.821 1.946-0.375 3.661-1.393-0.661 2.054-2.536 3.179 1.661-0.179 3.321-0.893z"></path>
</symbol>
<symbol id="feed" viewBox="0 0 25 32">
<title>feed</title>
<path class="path1" d="M6.857 24q0 1.429-1 2.429t-2.429 1-2.429-1-1-2.429 1-2.429 2.429-1 2.429 1 1 2.429zM16 26.196q0.036 0.5-0.304 0.857-0.321 0.375-0.839 0.375h-2.411q-0.446 0-0.768-0.295t-0.357-0.741q-0.393-4.089-3.295-6.991t-6.991-3.295q-0.446-0.036-0.741-0.357t-0.295-0.768v-2.411q0-0.518 0.375-0.839 0.304-0.304 0.768-0.304h0.089q2.857 0.232 5.464 1.438t4.625 3.241q2.036 2.018 3.241 4.625t1.438 5.464zM25.143 26.232q0.036 0.482-0.321 0.839-0.321 0.357-0.821 0.357h-2.554q-0.464 0-0.795-0.313t-0.348-0.759q-0.214-3.839-1.804-7.295t-4.134-6-6-4.134-7.295-1.821q-0.446-0.018-0.759-0.348t-0.313-0.777v-2.554q0-0.5 0.357-0.821 0.321-0.321 0.786-0.321h0.054q4.679 0.232 8.955 2.143t7.598 5.25q3.339 3.321 5.25 7.598t2.143 8.955z"></path>
</symbol>
<symbol id="archive" viewBox="0 0 32 32">
<title>archive</title>
<path class="path1" d="M19.429 14.857q0-0.464-0.339-0.804t-0.804-0.339h-4.571q-0.464 0-0.804 0.339t-0.339 0.804 0.339 0.804 0.804 0.339h4.571q0.464 0 0.804-0.339t0.339-0.804zM29.714 11.429v17.143q0 0.464-0.339 0.804t-0.804 0.339h-25.143q-0.464 0-0.804-0.339t-0.339-0.804v-17.143q0-0.464 0.339-0.804t0.804-0.339h25.143q0.464 0 0.804 0.339t0.339 0.804zM30.857 3.429v4.571q0 0.464-0.339 0.804t-0.804 0.339h-27.429q-0.464 0-0.804-0.339t-0.339-0.804v-4.571q0-0.464 0.339-0.804t0.804-0.339h27.429q0.464 0 0.804 0.339t0.339 0.804z"></path>
</symbol>
</defs>
</svg>
